<svg width="81" height="28" viewBox="0 0 81 28" fill="none" xmlns="http://www.w3.org/2000/svg">
<g filter="url(#filter0_d_7_54)">
<path d="M22.6748 19H18.5869L16.9619 14.7725H9.52246L7.98633 19H4L11.249 0.388672H15.2227L22.6748 19ZM15.7559 11.6367L13.1914 4.73047L10.6777 11.6367H15.7559ZM29.7375 19L24.3039 5.51758H28.049L30.588 12.3984L31.3244 14.6963C31.519 14.1123 31.6418 13.7272 31.6925 13.541C31.811 13.1602 31.938 12.7793 32.0734 12.3984L34.6379 5.51758H38.3068L32.9494 19H29.7375ZM42.8431 3.68945V0.388672H46.4105V3.68945H42.8431ZM42.8431 19V5.51758H46.4105V19H42.8431ZM58.602 5.51758V8.36133H56.1645V13.7949C56.1645 14.8952 56.1857 15.5384 56.228 15.7246C56.2788 15.9023 56.3846 16.0505 56.5454 16.1689C56.7147 16.2874 56.9178 16.3467 57.1548 16.3467C57.4848 16.3467 57.963 16.2324 58.5893 16.0039L58.894 18.7715C58.0646 19.127 57.1251 19.3047 56.0757 19.3047C55.4324 19.3047 54.8527 19.1989 54.3364 18.9873C53.8201 18.7673 53.4393 18.488 53.1938 18.1494C52.9568 17.8024 52.7918 17.3369 52.6987 16.7529C52.6225 16.3382 52.5845 15.5003 52.5845 14.2393V8.36133H50.9468V5.51758H52.5845V2.83887L56.1645 0.756836V5.51758H58.602ZM62.5924 12.0684C62.5924 10.8835 62.8844 9.73665 63.4684 8.62793C64.0524 7.51921 64.8776 6.67285 65.944 6.08887C67.0189 5.50488 68.2164 5.21289 69.5368 5.21289C71.5765 5.21289 73.248 5.87728 74.5514 7.20605C75.8548 8.52637 76.5065 10.1979 76.5065 12.2207C76.5065 14.2604 75.8463 15.9531 74.526 17.2988C73.2142 18.6361 71.5595 19.3047 69.5621 19.3047C68.3265 19.3047 67.1458 19.0254 66.0202 18.4668C64.903 17.9082 64.0524 17.0915 63.4684 16.0166C62.8844 14.9333 62.5924 13.6172 62.5924 12.0684ZM66.2487 12.2588C66.2487 13.596 66.5661 14.6201 67.2008 15.3311C67.8356 16.042 68.6185 16.3975 69.5495 16.3975C70.4804 16.3975 71.2591 16.042 71.8854 15.3311C72.5202 14.6201 72.8375 13.5876 72.8375 12.2334C72.8375 10.9131 72.5202 9.89746 71.8854 9.18652C71.2591 8.47559 70.4804 8.12012 69.5495 8.12012C68.6185 8.12012 67.8356 8.47559 67.2008 9.18652C66.5661 9.89746 66.2487 10.9215 66.2487 12.2588Z" fill="#011765"/>
<path d="M22.6748 19V20H24.1524L23.6031 18.6283L22.6748 19ZM18.5869 19L17.6535 19.3588L17.9 20H18.5869V19ZM16.9619 14.7725L17.8953 14.4137L17.6489 13.7725H16.9619V14.7725ZM9.52246 14.7725V13.7725H8.82185L8.58259 14.4309L9.52246 14.7725ZM7.98633 19V20H8.68693L8.9262 19.3415L7.98633 19ZM4 19L3.06819 18.6371L2.53733 20H4V19ZM11.249 0.388672V-0.611328H10.5653L10.3172 0.0257349L11.249 0.388672ZM15.2227 0.388672L16.151 0.0169535L15.8994 -0.611328H15.2227V0.388672ZM15.7559 11.6367V12.6367H17.1939L16.6933 11.2886L15.7559 11.6367ZM13.1914 4.73047L14.1289 4.38237L13.182 1.83245L12.2517 4.38845L13.1914 4.73047ZM10.6777 11.6367L9.73804 11.2947L9.24959 12.6367H10.6777V11.6367ZM22.6748 18H18.5869V20H22.6748V18ZM19.5203 18.6412L17.8953 14.4137L16.0285 15.1313L17.6535 19.3588L19.5203 18.6412ZM16.9619 13.7725H9.52246V15.7725H16.9619V13.7725ZM8.58259 14.4309L7.04645 18.6585L8.9262 19.3415L10.4623 15.114L8.58259 14.4309ZM7.98633 18H4V20H7.98633V18ZM4.93181 19.3629L12.1808 0.751609L10.3172 0.0257349L3.06819 18.6371L4.93181 19.3629ZM11.249 1.38867H15.2227V-0.611328H11.249V1.38867ZM14.2943 0.76039L21.7465 19.3717L23.6031 18.6283L16.151 0.0169535L14.2943 0.76039ZM16.6933 11.2886L14.1289 4.38237L12.2539 5.07857L14.8184 11.9848L16.6933 11.2886ZM12.2517 4.38845L9.73804 11.2947L11.6174 11.9787L14.1311 5.07249L12.2517 4.38845ZM10.6777 12.6367H15.7559V10.6367H10.6777V12.6367ZM29.7375 19L28.81 19.3738L29.0623 20H29.7375V19ZM24.3039 5.51758V4.51758H22.8227L23.3764 5.89138L24.3039 5.51758ZM28.049 5.51758L28.9872 5.17139L28.7459 4.51758H28.049V5.51758ZM30.588 12.3984L31.5403 12.0933L31.5337 12.0726L31.5262 12.0523L30.588 12.3984ZM31.3244 14.6963L30.3721 15.0014L31.3056 17.9148L32.2731 15.0125L31.3244 14.6963ZM31.6925 13.541L30.7377 13.2439L30.7324 13.2608L30.7278 13.2779L31.6925 13.541ZM32.0734 12.3984L31.1364 12.0492L31.1337 12.0563L31.1312 12.0634L32.0734 12.3984ZM34.6379 5.51758V4.51758H33.9434L33.7008 5.16835L34.6379 5.51758ZM38.3068 5.51758L39.2361 5.88686L39.7802 4.51758H38.3068V5.51758ZM32.9494 19V20H33.6281L33.8787 19.3693L32.9494 19ZM30.665 18.6262L25.2314 5.14378L23.3764 5.89138L28.81 19.3738L30.665 18.6262ZM24.3039 6.51758H28.049V4.51758H24.3039V6.51758ZM27.1108 5.86376L29.6499 12.7446L31.5262 12.0523L28.9872 5.17139L27.1108 5.86376ZM29.6357 12.7036L30.3721 15.0014L32.2767 14.3911L31.5403 12.0933L29.6357 12.7036ZM32.2731 15.0125C32.4659 14.4341 32.5979 14.022 32.6573 13.8041L30.7278 13.2779C30.6856 13.4325 30.5722 13.7905 30.3757 14.3801L32.2731 15.0125ZM32.6474 13.8381C32.7619 13.4701 32.8846 13.1019 33.0156 12.7334L31.1312 12.0634C30.9914 12.4567 30.8602 12.8502 30.7377 13.2439L32.6474 13.8381ZM33.0104 12.7477L35.5749 5.86681L33.7008 5.16835L31.1364 12.0492L33.0104 12.7477ZM34.6379 6.51758H38.3068V4.51758H34.6379V6.51758ZM37.3775 5.1483L32.0201 18.6307L33.8787 19.3693L39.2361 5.88686L37.3775 5.1483ZM32.9494 18H29.7375V20H32.9494V18ZM42.8431 3.68945H41.8431V4.68945H42.8431V3.68945ZM42.8431 0.388672V-0.611328H41.8431V0.388672H42.8431ZM46.4105 0.388672H47.4105V-0.611328H46.4105V0.388672ZM46.4105 3.68945V4.68945H47.4105V3.68945H46.4105ZM42.8431 19H41.8431V20H42.8431V19ZM42.8431 5.51758V4.51758H41.8431V5.51758H42.8431ZM46.4105 5.51758H47.4105V4.51758H46.4105V5.51758ZM46.4105 19V20H47.4105V19H46.4105ZM43.8431 3.68945V0.388672H41.8431V3.68945H43.8431ZM42.8431 1.38867H46.4105V-0.611328H42.8431V1.38867ZM45.4105 0.388672V3.68945H47.4105V0.388672H45.4105ZM46.4105 2.68945H42.8431V4.68945H46.4105V2.68945ZM43.8431 19V5.51758H41.8431V19H43.8431ZM42.8431 6.51758H46.4105V4.51758H42.8431V6.51758ZM45.4105 5.51758V19H47.4105V5.51758H45.4105ZM46.4105 18H42.8431V20H46.4105V18ZM58.602 5.51758H59.602V4.51758H58.602V5.51758ZM58.602 8.36133V9.36133H59.602V8.36133H58.602ZM56.1645 8.36133V7.36133H55.1645V8.36133H56.1645ZM56.228 15.7246L55.2529 15.9462L55.259 15.973L55.2665 15.9993L56.228 15.7246ZM56.5454 16.1689L55.9522 16.974L55.962 16.9812L55.9719 16.9882L56.5454 16.1689ZM58.5893 16.0039L59.5833 15.8945L59.4439 14.6276L58.2466 15.0645L58.5893 16.0039ZM58.894 18.7715L59.2879 19.6906L59.9691 19.3987L59.888 18.6621L58.894 18.7715ZM54.3364 18.9873L53.9443 19.9073L53.9572 19.9126L54.3364 18.9873ZM53.1938 18.1494L52.368 18.7134L52.376 18.725L52.3842 18.7364L53.1938 18.1494ZM52.6987 16.7529L53.6862 16.5955L53.6844 16.5839L53.6823 16.5723L52.6987 16.7529ZM52.5845 8.36133H53.5845V7.36133H52.5845V8.36133ZM50.9468 8.36133H49.9468V9.36133H50.9468V8.36133ZM50.9468 5.51758V4.51758H49.9468V5.51758H50.9468ZM52.5845 5.51758V6.51758H53.5845V5.51758H52.5845ZM52.5845 2.83887L52.0817 1.97442L51.5845 2.26362V2.83887H52.5845ZM56.1645 0.756836H57.1645V-0.981535L55.6618 -0.107609L56.1645 0.756836ZM56.1645 5.51758H55.1645V6.51758H56.1645V5.51758ZM57.602 5.51758V8.36133H59.602V5.51758H57.602ZM58.602 7.36133H56.1645V9.36133H58.602V7.36133ZM55.1645 8.36133V13.7949H57.1645V8.36133H55.1645ZM55.1645 13.7949C55.1645 14.3495 55.1698 14.7979 55.1809 15.1354C55.1907 15.4325 55.2064 15.7418 55.2529 15.9462L57.2031 15.503C57.2073 15.5212 57.1912 15.4158 57.1799 15.0697C57.1698 14.764 57.1645 14.3406 57.1645 13.7949H55.1645ZM55.2665 15.9993C55.383 16.4073 55.6286 16.7356 55.9522 16.974L57.1386 15.3639C57.1348 15.3611 57.1451 15.3681 57.1592 15.3878C57.1737 15.4081 57.184 15.4306 57.1895 15.4499L55.2665 15.9993ZM55.9719 16.9882C56.3331 17.241 56.7438 17.3467 57.1548 17.3467V15.3467C57.1198 15.3467 57.1051 15.3424 57.1047 15.3422C57.1043 15.3421 57.1061 15.3427 57.1094 15.3442C57.1127 15.3458 57.116 15.3477 57.1189 15.3497L55.9719 16.9882ZM57.1548 17.3467C57.6688 17.3467 58.2845 17.1796 58.9321 16.9433L58.2466 15.0645C57.6415 15.2852 57.3009 15.3467 57.1548 15.3467V17.3467ZM57.5953 16.1133L57.9 18.8809L59.888 18.6621L59.5833 15.8945L57.5953 16.1133ZM58.5001 17.8523C57.8138 18.1465 57.0116 18.3047 56.0757 18.3047V20.3047C57.2387 20.3047 58.3154 20.1074 59.2879 19.6906L58.5001 17.8523ZM56.0757 18.3047C55.5428 18.3047 55.0946 18.2173 54.7156 18.062L53.9572 19.9126C54.6108 20.1805 55.322 20.3047 56.0757 20.3047V18.3047ZM54.7285 18.0674C54.3238 17.8949 54.112 17.7122 54.0034 17.5624L52.3842 18.7364C52.7665 19.2637 53.3165 19.6396 53.9443 19.9072L54.7285 18.0674ZM54.0196 17.5855C53.8926 17.3995 53.7649 17.0892 53.6862 16.5955L51.7112 16.9104C51.8187 17.5847 52.0211 18.2053 52.368 18.7134L54.0196 17.5855ZM53.6823 16.5723C53.6253 16.262 53.5845 15.5156 53.5845 14.2393H51.5845C51.5845 15.485 51.6198 16.4144 51.7152 16.9336L53.6823 16.5723ZM53.5845 14.2393V8.36133H51.5845V14.2393H53.5845ZM52.5845 7.36133H50.9468V9.36133H52.5845V7.36133ZM51.9468 8.36133V5.51758H49.9468V8.36133H51.9468ZM50.9468 6.51758H52.5845V4.51758H50.9468V6.51758ZM53.5845 5.51758V2.83887H51.5845V5.51758H53.5845ZM53.0872 3.70331L56.6673 1.62128L55.6618 -0.107609L52.0817 1.97442L53.0872 3.70331ZM55.1645 0.756836V5.51758H57.1645V0.756836H55.1645ZM56.1645 6.51758H58.602V4.51758H56.1645V6.51758ZM65.944 6.08887L65.4666 5.21017L65.4637 5.21177L65.944 6.08887ZM74.5514 7.20605L73.8375 7.90631L73.8398 7.90858L74.5514 7.20605ZM74.526 17.2988L73.8122 16.5985L73.8122 16.5985L74.526 17.2988ZM66.0202 18.4668L65.5729 19.3612L65.5756 19.3626L66.0202 18.4668ZM63.4684 16.0166L62.5881 16.4911L62.5897 16.494L63.4684 16.0166ZM71.8854 15.3311L71.1394 14.665L71.135 14.67L71.8854 15.3311ZM71.8854 9.18652L71.135 9.84757L71.1395 9.85254L71.8854 9.18652ZM63.5924 12.0684C63.5924 11.0552 63.8404 10.0675 64.3532 9.09395L62.5836 8.16191C61.9285 9.40578 61.5924 10.7117 61.5924 12.0684H63.5924ZM64.3532 9.09395C64.8486 8.15335 65.5357 7.4526 66.4243 6.96596L65.4637 5.21177C64.2195 5.89311 63.2562 6.88506 62.5836 8.16191L64.3532 9.09395ZM66.4214 6.96756C67.3382 6.46943 68.3696 6.21289 69.5368 6.21289V4.21289C68.0633 4.21289 66.6995 4.54034 65.4666 5.21018L66.4214 6.96756ZM69.5368 6.21289C71.3363 6.21289 72.7412 6.78862 73.8375 7.90631L75.2653 6.5058C73.7549 4.96593 71.8166 4.21289 69.5368 4.21289V6.21289ZM73.8398 7.90858C74.9408 9.02396 75.5065 10.4348 75.5065 12.2207H77.5065C77.5065 9.96103 76.7688 8.02878 75.2631 6.50352L73.8398 7.90858ZM75.5065 12.2207C75.5065 14.0221 74.9332 15.456 73.8122 16.5985L75.2398 17.9992C76.7595 16.4503 77.5065 14.4987 77.5065 12.2207H75.5065ZM73.8122 16.5985C72.7018 17.7304 71.3108 18.3047 69.5621 18.3047V20.3047C71.8083 20.3047 73.7265 19.5417 75.2399 17.9991L73.8122 16.5985ZM69.5621 18.3047C68.4834 18.3047 67.4546 18.0623 66.4647 17.571L65.5756 19.3626C66.837 19.9885 68.1696 20.3047 69.5621 20.3047V18.3047ZM66.4674 17.5724C65.5292 17.1033 64.8312 16.4302 64.3471 15.5392L62.5897 16.494C63.2736 17.7528 64.2768 18.7131 65.5729 19.3612L66.4674 17.5724ZM64.3486 15.5421C63.861 14.6375 63.5924 13.4935 63.5924 12.0684H61.5924C61.5924 13.7409 61.9078 15.229 62.5882 16.4911L64.3486 15.5421ZM65.2487 12.2588C65.2487 13.7429 65.6009 15.0406 66.4549 15.9971L67.9468 14.665C67.5312 14.1996 67.2487 13.4491 67.2487 12.2588H65.2487ZM66.4549 15.9971C67.2742 16.9147 68.326 17.3975 69.5495 17.3975V15.3975C68.911 15.3975 68.3969 15.1692 67.9468 14.665L66.4549 15.9971ZM69.5495 17.3975C70.7734 17.3975 71.8235 16.9142 72.6357 15.9921L71.135 14.67C70.6947 15.1698 70.1875 15.3975 69.5495 15.3975V17.3975ZM72.6313 15.9971C73.4871 15.0386 73.8375 13.7306 73.8375 12.2334H71.8375C71.8375 13.4445 71.5532 14.2017 71.1395 14.665L72.6313 15.9971ZM73.8375 12.2334C73.8375 10.7623 73.4835 9.47489 72.6313 8.52051L71.1395 9.85254C71.5569 10.32 71.8375 11.0639 71.8375 12.2334H73.8375ZM72.6357 8.52549C71.8235 7.60343 70.7734 7.12012 69.5495 7.12012V9.12012C70.1875 9.12012 70.6947 9.34774 71.135 9.84755L72.6357 8.52549ZM69.5495 7.12012C68.326 7.12012 67.2742 7.60283 66.4549 8.52051L67.9468 9.85254C68.3969 9.34834 68.911 9.12012 69.5495 9.12012V7.12012ZM66.4549 8.52051C65.6009 9.47698 65.2487 10.7746 65.2487 12.2588H67.2487C67.2487 11.0685 67.5312 10.3179 67.9468 9.85254L66.4549 8.52051Z" fill="black"/>
</g>
<defs>
<filter id="filter0_d_7_54" x="0" y="0.388672" width="80.5065" height="26.916" filterUnits="userSpaceOnUse" color-interpolation-filters="sRGB">
<feFlood flood-opacity="0" result="BackgroundImageFix"/>
<feColorMatrix in="SourceAlpha" type="matrix" values="0 0 0 0 0 0 0 0 0 0 0 0 0 0 0 0 0 0 127 0" result="hardAlpha"/>
<feOffset dy="4"/>
<feGaussianBlur stdDeviation="2"/>
<feComposite in2="hardAlpha" operator="out"/>
<feColorMatrix type="matrix" values="0 0 0 0 0 0 0 0 0 0 0 0 0 0 0 0 0 0 0.25 0"/>
<feBlend mode="normal" in2="BackgroundImageFix" result="effect1_dropShadow_7_54"/>
<feBlend mode="normal" in="SourceGraphic" in2="effect1_dropShadow_7_54" result="shape"/>
</filter>
</defs>
</svg>
