<svg width="140" height="31" viewBox="0 0 140 31" fill="none" xmlns="http://www.w3.org/2000/svg">
<g filter="url(#filter0_d_7_55)">
<path d="M4.2998 22V0.701172H8.63574V18.3818H19.417V22H4.2998ZM22.3906 22V0.525391H26.7266V22H22.3906ZM30.916 22V0.525391H35.1348L43.9238 14.8662V0.525391H47.9521V22H43.6016L34.9443 7.99609V22H30.916ZM66.292 14.1045L70.4961 15.4375C69.8516 17.7812 68.7773 19.5244 67.2734 20.667C65.7793 21.7998 63.8799 22.3662 61.5752 22.3662C58.7236 22.3662 56.3799 21.3945 54.5439 19.4512C52.708 17.498 51.79 14.832 51.79 11.4531C51.79 7.87891 52.7129 5.10547 54.5586 3.13281C56.4043 1.15039 58.8311 0.15918 61.8389 0.15918C64.4658 0.15918 66.5996 0.935547 68.2402 2.48828C69.2168 3.40625 69.9492 4.72461 70.4375 6.44336L66.1455 7.46875C65.8916 6.35547 65.3594 5.47656 64.5488 4.83203C63.748 4.1875 62.7715 3.86523 61.6191 3.86523C60.0273 3.86523 58.7334 4.43652 57.7373 5.5791C56.751 6.72168 56.2578 8.57227 56.2578 11.1309C56.2578 13.8457 56.7461 15.7793 57.7227 16.9316C58.6992 18.084 59.9688 18.6602 61.5312 18.6602C62.6836 18.6602 63.6748 18.2939 64.5049 17.5615C65.335 16.8291 65.9307 15.6768 66.292 14.1045ZM73.3525 11.3945C73.3525 9.20703 73.6797 7.37109 74.334 5.88672C74.8223 4.79297 75.4863 3.81152 76.3262 2.94238C77.1758 2.07324 78.1035 1.42871 79.1094 1.00879C80.4473 0.442383 81.9902 0.15918 83.7383 0.15918C86.9023 0.15918 89.4316 1.14062 91.3262 3.10352C93.2305 5.06641 94.1826 7.7959 94.1826 11.292C94.1826 14.7588 93.2402 17.4736 91.3555 19.4365C89.4707 21.3896 86.9512 22.3662 83.7969 22.3662C80.6035 22.3662 78.0645 21.3945 76.1797 19.4512C74.2949 17.498 73.3525 14.8125 73.3525 11.3945ZM77.8203 11.248C77.8203 13.6797 78.3818 15.5254 79.5049 16.7852C80.6279 18.0352 82.0537 18.6602 83.7822 18.6602C85.5107 18.6602 86.9268 18.04 88.0303 16.7998C89.1436 15.5498 89.7002 13.6797 89.7002 11.1895C89.7002 8.72852 89.1582 6.89258 88.0742 5.68164C87 4.4707 85.5693 3.86523 83.7822 3.86523C81.9951 3.86523 80.5547 4.48047 79.4609 5.71094C78.3672 6.93164 77.8203 8.77734 77.8203 11.248ZM97.5664 0.525391H105.491C107.278 0.525391 108.641 0.662109 109.578 0.935547C110.838 1.30664 111.917 1.96582 112.815 2.91309C113.714 3.86035 114.397 5.02246 114.866 6.39941C115.335 7.7666 115.569 9.45605 115.569 11.4678C115.569 13.2354 115.35 14.7588 114.91 16.0381C114.373 17.6006 113.606 18.8652 112.61 19.832C111.858 20.5645 110.843 21.1357 109.563 21.5459C108.606 21.8486 107.327 22 105.726 22H97.5664V0.525391ZM101.902 4.1582V18.3818H105.14C106.351 18.3818 107.225 18.3135 107.762 18.1768C108.465 18.001 109.046 17.7031 109.505 17.2832C109.974 16.8633 110.354 16.1748 110.647 15.2178C110.94 14.251 111.087 12.9375 111.087 11.2773C111.087 9.61719 110.94 8.34277 110.647 7.4541C110.354 6.56543 109.944 5.87207 109.417 5.37402C108.89 4.87598 108.221 4.53906 107.41 4.36328C106.805 4.22656 105.618 4.1582 103.851 4.1582H101.902ZM119.261 22V0.525391H135.184V4.1582H123.597V8.91895H134.378V12.5371H123.597V18.3818H135.594V22H119.261Z" fill="#011765"/>
<path d="M4.2998 22H3.2998V23H4.2998V22ZM4.2998 0.701172V-0.298828H3.2998V0.701172H4.2998ZM8.63574 0.701172H9.63574V-0.298828H8.63574V0.701172ZM8.63574 18.3818H7.63574V19.3818H8.63574V18.3818ZM19.417 18.3818H20.417V17.3818H19.417V18.3818ZM19.417 22V23H20.417V22H19.417ZM5.2998 22V0.701172H3.2998V22H5.2998ZM4.2998 1.70117H8.63574V-0.298828H4.2998V1.70117ZM7.63574 0.701172V18.3818H9.63574V0.701172H7.63574ZM8.63574 19.3818H19.417V17.3818H8.63574V19.3818ZM18.417 18.3818V22H20.417V18.3818H18.417ZM19.417 21H4.2998V23H19.417V21ZM22.3906 22H21.3906V23H22.3906V22ZM22.3906 0.525391V-0.474609H21.3906V0.525391H22.3906ZM26.7266 0.525391H27.7266V-0.474609H26.7266V0.525391ZM26.7266 22V23H27.7266V22H26.7266ZM23.3906 22V0.525391H21.3906V22H23.3906ZM22.3906 1.52539H26.7266V-0.474609H22.3906V1.52539ZM25.7266 0.525391V22H27.7266V0.525391H25.7266ZM26.7266 21H22.3906V23H26.7266V21ZM30.916 22H29.916V23H30.916V22ZM30.916 0.525391V-0.474609H29.916V0.525391H30.916ZM35.1348 0.525391L35.9874 0.0028491L35.6948 -0.474609H35.1348V0.525391ZM43.9238 14.8662L43.0712 15.3888L44.9238 18.4116V14.8662H43.9238ZM43.9238 0.525391V-0.474609H42.9238V0.525391H43.9238ZM47.9521 0.525391H48.9521V-0.474609H47.9521V0.525391ZM47.9521 22V23H48.9521V22H47.9521ZM43.6016 22L42.751 22.5258L43.0441 23H43.6016V22ZM34.9443 7.99609L35.7949 7.47026L33.9443 4.47676V7.99609H34.9443ZM34.9443 22V23H35.9443V22H34.9443ZM31.916 22V0.525391H29.916V22H31.916ZM30.916 1.52539H35.1348V-0.474609H30.916V1.52539ZM34.2822 1.04793L43.0712 15.3888L44.7764 14.3437L35.9874 0.0028491L34.2822 1.04793ZM44.9238 14.8662V0.525391H42.9238V14.8662H44.9238ZM43.9238 1.52539H47.9521V-0.474609H43.9238V1.52539ZM46.9521 0.525391V22H48.9521V0.525391H46.9521ZM47.9521 21H43.6016V23H47.9521V21ZM44.4521 21.4742L35.7949 7.47026L34.0938 8.52193L42.751 22.5258L44.4521 21.4742ZM33.9443 7.99609V22H35.9443V7.99609H33.9443ZM34.9443 21H30.916V23H34.9443V21ZM66.292 14.1045L66.5942 13.1513L65.5603 12.8234L65.3174 13.8805L66.292 14.1045ZM70.4961 15.4375L71.4603 15.7027L71.7154 14.775L70.7983 14.4843L70.4961 15.4375ZM67.2734 20.667L67.8776 21.4639L67.8784 21.4633L67.2734 20.667ZM54.5439 19.4512L53.8153 20.1361L53.817 20.1379L54.5439 19.4512ZM54.5586 3.13281L55.2888 3.81603L55.2905 3.81423L54.5586 3.13281ZM68.2402 2.48828L67.5528 3.21458L67.5553 3.21691L68.2402 2.48828ZM70.4375 6.44336L70.6699 7.41599L71.6845 7.17358L71.3994 6.17008L70.4375 6.44336ZM66.1455 7.46875L65.1705 7.69111L65.3952 8.67615L66.3779 8.44138L66.1455 7.46875ZM64.5488 4.83203L63.9218 5.61106L63.9264 5.61474L64.5488 4.83203ZM57.7373 5.5791L56.9835 4.92196L56.9803 4.92565L57.7373 5.5791ZM65.9897 15.0577L70.1938 16.3907L70.7983 14.4843L66.5942 13.1513L65.9897 15.0577ZM69.5319 15.1723C68.9287 17.3656 67.953 18.8948 66.6685 19.8707L67.8784 21.4633C69.6017 20.154 70.7744 18.1969 71.4603 15.7027L69.5319 15.1723ZM66.6693 19.8701C65.3857 20.8433 63.7128 21.3662 61.5752 21.3662V23.3662C64.0469 23.3662 66.1729 22.7563 67.8776 21.4639L66.6693 19.8701ZM61.5752 21.3662C58.9782 21.3662 56.9043 20.4934 55.2709 18.7644L53.817 20.1379C55.8555 22.2956 58.4691 23.3662 61.5752 23.3662V21.3662ZM55.2726 18.7663C53.6532 17.0435 52.79 14.6467 52.79 11.4531H50.79C50.79 15.0174 51.7628 17.9526 53.8153 20.1361L55.2726 18.7663ZM52.79 11.4531C52.79 8.04856 53.6664 5.55001 55.2888 3.81603L53.8284 2.44959C51.7594 4.66093 50.79 7.70925 50.79 11.4531H52.79ZM55.2905 3.81423C56.925 2.0586 59.0747 1.15918 61.8389 1.15918V-0.84082C58.5874 -0.84082 55.8835 0.242185 53.8267 2.45139L55.2905 3.81423ZM61.8389 1.15918C64.2548 1.15918 66.128 1.86606 67.5528 3.21457L68.9276 1.76199C67.0712 0.00502968 64.6769 -0.84082 61.8389 -0.84082V1.15918ZM67.5553 3.21691C68.3631 3.97624 69.0208 5.1157 69.4756 6.71664L71.3994 6.17008C70.8777 4.33352 70.0705 2.83626 68.9251 1.75965L67.5553 3.21691ZM70.2051 5.47073L65.9131 6.49612L66.3779 8.44138L70.6699 7.41599L70.2051 5.47073ZM67.1205 7.24639C66.8216 5.93588 66.178 4.84988 65.1712 4.04933L63.9264 5.61474C64.5408 6.10324 64.9616 6.77506 65.1705 7.69111L67.1205 7.24639ZM65.1758 4.05302C64.1759 3.24816 62.9703 2.86523 61.6191 2.86523V4.86523C62.5726 4.86523 63.3202 5.12684 63.9218 5.61104L65.1758 4.05302ZM61.6191 2.86523C59.7548 2.86523 58.1801 3.54942 56.9835 4.92197L58.4911 6.23624C59.2867 5.32363 60.2999 4.86523 61.6191 4.86523V2.86523ZM56.9803 4.92565C55.7599 6.33943 55.2578 8.48565 55.2578 11.1309H57.2578C57.2578 8.65888 57.7421 7.10393 58.4943 6.23255L56.9803 4.92565ZM55.2578 11.1309C55.2578 13.9139 55.7482 16.1485 56.9598 17.5782L58.4856 16.2851C57.744 15.41 57.2578 13.7776 57.2578 11.1309H55.2578ZM56.9598 17.5782C58.1337 18.9634 59.6865 19.6602 61.5312 19.6602V17.6602C60.251 17.6602 59.2647 17.2045 58.4856 16.2851L56.9598 17.5782ZM61.5312 19.6602C62.9163 19.6602 64.1457 19.2121 65.1665 18.3114L63.8433 16.8117C63.2039 17.3758 62.4509 17.6602 61.5312 17.6602V19.6602ZM65.1665 18.3114C66.2102 17.3905 66.8789 16.0154 67.2666 14.3285L65.3174 13.8805C64.9824 15.3382 64.4598 16.2677 63.8433 16.8117L65.1665 18.3114ZM74.334 5.88672L73.4208 5.47906L73.4189 5.48337L74.334 5.88672ZM76.3262 2.94238L75.6111 2.24334L75.607 2.2475L76.3262 2.94238ZM79.1094 1.00879L79.4946 1.93161L79.4992 1.92966L79.1094 1.00879ZM91.3262 3.10352L90.6066 3.79799L90.6084 3.79983L91.3262 3.10352ZM91.3555 19.4365L92.0751 20.1309L92.0768 20.1291L91.3555 19.4365ZM76.1797 19.4512L75.4601 20.1456L75.4618 20.1474L76.1797 19.4512ZM79.5049 16.7852L78.7584 17.4506L78.761 17.4535L79.5049 16.7852ZM88.0303 16.7998L87.2835 16.1347L87.2832 16.1351L88.0303 16.7998ZM88.0742 5.68164L87.3261 6.34526L87.3291 6.34861L88.0742 5.68164ZM79.4609 5.71094L80.2057 6.37826L80.2083 6.3753L79.4609 5.71094ZM74.3525 11.3945C74.3525 9.3002 74.6666 7.61129 75.249 6.29006L73.4189 5.48337C72.6927 7.1309 72.3525 9.11386 72.3525 11.3945H74.3525ZM75.2471 6.29437C75.6875 5.3079 76.2856 4.42346 77.0453 3.63727L75.607 2.2475C74.687 3.19959 73.957 4.27803 73.4208 5.47907L75.2471 6.29437ZM77.0413 3.64141C77.8079 2.85718 78.6261 2.29418 79.4946 1.9316L78.7241 0.0859776C77.5809 0.563246 76.5437 1.2893 75.6111 2.24336L77.0413 3.64141ZM79.4992 1.92966C80.6914 1.42494 82.0975 1.15918 83.7383 1.15918V-0.84082C81.8829 -0.84082 80.2031 -0.540178 78.7195 0.0879145L79.4992 1.92966ZM83.7383 1.15918C86.6782 1.15918 88.931 2.06187 90.6066 3.79798L92.0457 2.40905C89.9323 0.219382 87.1265 -0.84082 83.7383 -0.84082V1.15918ZM90.6084 3.79983C92.2852 5.52817 93.1826 7.98036 93.1826 11.292H95.1826C95.1826 7.61144 94.1758 4.60464 92.0439 2.4072L90.6084 3.79983ZM93.1826 11.292C93.1826 14.5744 92.2948 17.0144 90.6342 18.7439L92.0768 20.1291C94.1857 17.9328 95.1826 14.9432 95.1826 11.292H93.1826ZM90.6359 18.7421C88.9704 20.468 86.7276 21.3662 83.7969 21.3662V23.3662C87.1747 23.3662 89.971 22.3113 92.0751 20.1309L90.6359 18.7421ZM83.7969 21.3662C80.8215 21.3662 78.5603 20.4694 76.8975 18.755L75.4618 20.1474C77.5686 22.3197 80.3855 23.3662 83.7969 23.3662V21.3662ZM76.8993 18.7568C75.238 17.0352 74.3525 14.6238 74.3525 11.3945H72.3525C72.3525 15.0012 73.3519 17.9609 75.4601 20.1456L76.8993 18.7568ZM76.8203 11.248C76.8203 13.8183 77.4128 15.9411 78.7584 17.4506L80.2513 16.1197C79.3509 15.1097 78.8203 13.5411 78.8203 11.248H76.8203ZM78.761 17.4535C80.0798 18.9214 81.7792 19.6602 83.7822 19.6602V17.6602C82.3282 17.6602 81.176 17.1489 80.2488 16.1168L78.761 17.4535ZM83.7822 19.6602C85.7828 19.6602 87.4754 18.9278 88.7774 17.4645L87.2832 16.1351C86.3781 17.1522 85.2386 17.6602 83.7822 17.6602V19.6602ZM88.777 17.4649C90.1171 15.9602 90.7002 13.8083 90.7002 11.1895H88.7002C88.7002 13.551 88.17 15.1394 87.2835 16.1347L88.777 17.4649ZM90.7002 11.1895C90.7002 8.60499 90.1341 6.4834 88.8193 5.01467L87.3291 6.34861C88.1824 7.30175 88.7002 8.85204 88.7002 11.1895H90.7002ZM88.8223 5.01803C87.5373 3.56944 85.822 2.86523 83.7822 2.86523V4.86523C85.3166 4.86523 86.4627 5.37196 87.3261 6.34525L88.8223 5.01803ZM83.7822 2.86523C81.7369 2.86523 80.0146 3.58292 78.7135 5.04657L80.2083 6.3753C81.0948 5.37802 82.2533 4.86523 83.7822 4.86523V2.86523ZM78.7162 5.04362C77.392 6.5215 76.8203 8.65235 76.8203 11.248H78.8203C78.8203 8.90233 79.3424 7.34178 80.2057 6.37825L78.7162 5.04362ZM97.5664 0.525391V-0.474609H96.5664V0.525391H97.5664ZM109.578 0.935547L109.861 -0.0237036L109.858 -0.0244532L109.578 0.935547ZM114.866 6.39941L113.92 6.72168L113.92 6.72374L114.866 6.39941ZM114.91 16.0381L115.856 16.3632L115.856 16.363L114.91 16.0381ZM112.61 19.832L111.914 19.1144L111.913 19.1157L112.61 19.832ZM109.563 21.5459L109.865 22.4993L109.869 22.4982L109.563 21.5459ZM97.5664 22H96.5664V23H97.5664V22ZM101.902 4.1582V3.1582H100.902V4.1582H101.902ZM101.902 18.3818H100.902V19.3818H101.902V18.3818ZM107.762 18.1768L107.519 17.2066L107.515 17.2077L107.762 18.1768ZM109.505 17.2832L108.838 16.5383L108.83 16.5454L109.505 17.2832ZM110.647 15.2178L111.604 15.5105L111.604 15.5078L110.647 15.2178ZM110.647 7.4541L109.698 7.7672L110.647 7.4541ZM107.41 4.36328L107.19 5.33876L107.198 5.34056L107.41 4.36328ZM97.5664 1.52539H105.491V-0.474609H97.5664V1.52539ZM105.491 1.52539C107.248 1.52539 108.498 1.66211 109.298 1.89555L109.858 -0.0244532C108.783 -0.337895 107.308 -0.474609 105.491 -0.474609V1.52539ZM109.296 1.89479C110.387 2.21643 111.313 2.78257 112.09 3.60125L113.541 2.22493C112.521 1.14907 111.288 0.396855 109.861 -0.0237002L109.296 1.89479ZM112.09 3.60125C112.878 4.43253 113.492 5.46553 113.92 6.72168L115.813 6.07715C115.303 4.57939 114.549 3.28817 113.541 2.22493L112.09 3.60125ZM113.92 6.72374C114.342 7.9545 114.569 9.52648 114.569 11.4678H116.569C116.569 9.38562 116.328 7.57871 115.812 6.07509L113.92 6.72374ZM114.569 11.4678C114.569 13.1568 114.359 14.565 113.964 15.7132L115.856 16.363C116.34 14.9526 116.569 13.3139 116.569 11.4678H114.569ZM113.964 15.713C113.469 17.155 112.778 18.2761 111.914 19.1145L113.307 20.5496C114.435 19.4544 115.277 18.0462 115.856 16.3632L113.964 15.713ZM111.913 19.1157C111.298 19.7143 110.43 20.2179 109.258 20.5936L109.869 22.4982C111.255 22.0536 112.419 21.4146 113.308 20.5484L111.913 19.1157ZM109.262 20.5925C108.443 20.8516 107.278 21 105.726 21V23C107.376 23 108.77 22.8457 109.865 22.4993L109.262 20.5925ZM105.726 21H97.5664V23H105.726V21ZM98.5664 22V0.525391H96.5664V22H98.5664ZM100.902 4.1582V18.3818H102.902V4.1582H100.902ZM101.902 19.3818H105.14V17.3818H101.902V19.3818ZM105.14 19.3818C106.36 19.3818 107.341 19.3157 108.008 19.1459L107.515 17.2077C107.108 17.3113 106.342 17.3818 105.14 17.3818V19.3818ZM108.004 19.1469C108.842 18.9375 109.579 18.5703 110.18 18.021L108.83 16.5454C108.512 16.8359 108.088 17.0645 107.519 17.2066L108.004 19.1469ZM110.172 18.028C110.834 17.4347 111.286 16.5484 111.604 15.5105L109.691 14.9251C109.423 15.8013 109.113 16.2919 108.838 16.5384L110.172 18.028ZM111.604 15.5078C111.938 14.4061 112.087 12.9813 112.087 11.2773H110.087C110.087 12.8937 109.943 14.0958 109.69 14.9278L111.604 15.5078ZM112.087 11.2773C112.087 9.5797 111.94 8.18011 111.597 7.14101L109.698 7.7672C109.941 8.50543 110.087 9.65467 110.087 11.2773H112.087ZM111.597 7.14101C111.267 6.13913 110.782 5.28737 110.104 4.64701L108.73 6.10104C109.107 6.45677 109.442 6.99173 109.698 7.7672L111.597 7.14101ZM110.104 4.64701C109.426 4.00674 108.585 3.59475 107.622 3.386L107.198 5.34056C107.857 5.48338 108.354 5.74522 108.73 6.10104L110.104 4.64701ZM107.63 3.38784C106.899 3.22279 105.603 3.1582 103.851 3.1582V5.1582C105.633 5.1582 106.71 5.23033 107.19 5.33872L107.63 3.38784ZM103.851 3.1582H101.902V5.1582H103.851V3.1582ZM119.261 22H118.261V23H119.261V22ZM119.261 0.525391V-0.474609H118.261V0.525391H119.261ZM135.184 0.525391H136.184V-0.474609H135.184V0.525391ZM135.184 4.1582V5.1582H136.184V4.1582H135.184ZM123.597 4.1582V3.1582H122.597V4.1582H123.597ZM123.597 8.91895H122.597V9.91895H123.597V8.91895ZM134.378 8.91895H135.378V7.91895H134.378V8.91895ZM134.378 12.5371V13.5371H135.378V12.5371H134.378ZM123.597 12.5371V11.5371H122.597V12.5371H123.597ZM123.597 18.3818H122.597V19.3818H123.597V18.3818ZM135.594 18.3818H136.594V17.3818H135.594V18.3818ZM135.594 22V23H136.594V22H135.594ZM120.261 22V0.525391H118.261V22H120.261ZM119.261 1.52539H135.184V-0.474609H119.261V1.52539ZM134.184 0.525391V4.1582H136.184V0.525391H134.184ZM135.184 3.1582H123.597V5.1582H135.184V3.1582ZM122.597 4.1582V8.91895H124.597V4.1582H122.597ZM123.597 9.91895H134.378V7.91895H123.597V9.91895ZM133.378 8.91895V12.5371H135.378V8.91895H133.378ZM134.378 11.5371H123.597V13.5371H134.378V11.5371ZM122.597 12.5371V18.3818H124.597V12.5371H122.597ZM123.597 19.3818H135.594V17.3818H123.597V19.3818ZM134.594 18.3818V22H136.594V18.3818H134.594ZM135.594 21H119.261V23H135.594V21Z" fill="black"/>
</g>
<defs>
<filter id="filter0_d_7_55" x="0.299805" y="0.15918" width="139.294" height="30.207" filterUnits="userSpaceOnUse" color-interpolation-filters="sRGB">
<feFlood flood-opacity="0" result="BackgroundImageFix"/>
<feColorMatrix in="SourceAlpha" type="matrix" values="0 0 0 0 0 0 0 0 0 0 0 0 0 0 0 0 0 0 127 0" result="hardAlpha"/>
<feOffset dy="4"/>
<feGaussianBlur stdDeviation="2"/>
<feComposite in2="hardAlpha" operator="out"/>
<feColorMatrix type="matrix" values="0 0 0 0 0 0 0 0 0 0 0 0 0 0 0 0 0 0 0.25 0"/>
<feBlend mode="normal" in2="BackgroundImageFix" result="effect1_dropShadow_7_55"/>
<feBlend mode="normal" in="SourceGraphic" in2="effect1_dropShadow_7_55" result="shape"/>
</filter>
</defs>
</svg>
